# xmcd
#
# Track frame offsets: 
#        183
#        14458
#        28558
#        42333
#        59383
#        73845
#        88933
#        100983
#        114233
#        127433
#        142795
#        157608
#        171370
#        186533
#
# Disc length: 2662 seconds
#
# Revision: 6
# Processed by: cddbd v1.5.2PL0 Copyright (c) Steve Scherf et al.
# Submitted via: ExactAudioCopyFreeDBPlugin 1.0
#
DISCID=c50a640e
DTITLE=Truck Stop - 1000 Meilen Staub [CD 1)
DYEAR=1993
DGENRE=Country
TTITLE0=Ich fang' ein neus Leben an
TTITLE1=Wilde Pferde, wilde Wölfe, wildes Land
TTITLE2=Männer mit Hut
TTITLE3=Immer noch verrückt
TTITLE4=Wir sind noch lange keine Opas
TTITLE5=Sweet Tequila
TTITLE6=Wenn Joe Harper kommt
TTITLE7=Country Made in Germany
TTITLE8=Mein Opa ist ein Countryman
TTITLE9=Lass mich los
TTITLE10=Bleib' doch hier heut' Nacht
TTITLE11=Mein Freund heisst Ibrahim
TTITLE12=1000 Meilen Staub auf uns'ren Stiefeln
TTITLE13=Howdy, Howdy
EXTD=
EXTT0=
EXTT1=
EXTT2=
EXTT3=
EXTT4=
EXTT5=
EXTT6=
EXTT7=
EXTT8=
EXTT9=
EXTT10=
EXTT11=
EXTT12=
EXTT13=
PLAYORDER=
